# xmcd
#
# Track frame offsets: 
#        150
#        15860
#        26968
#        50253
#        60918
#        75503
#        90013
#        106723
#        122950
#        140130
#        160810
#        175413
#        188575
#        202610
#        218995
#        233068
#
# Disc length: 3309 seconds
#
# Revision: 2
# Processed by: cddbd v1.5.2PL0 Copyright (c) Steve Scherf et al.
# Submitted via: ExactAudioCopy v0.99pb5
#
DISCID=bd0ceb10
DTITLE=Various Artist - New Country - Top Hits USA
DYEAR=1990
DGENRE=Country
TTITLE0=Waylon Jennings - The devil's right hand
TTITLE1=Patty Loveless - Chains
TTITLE2=Steve Earle And The Dukes - The other kind
TTITLE3=Oak Ridge Boys - Never together (but close sometimes)
TTITLE4=Skip Ewing - Burnin' a hole in my heart
TTITLE5=Vince Gill and Emmylou Harris - Rita Ballou
TTITLE6=Jimmy Buffett - Take another road
TTITLE7=Steve Wariner - The domino theory
TTITLE8=Nanci Griffith - Listen to the radio
TTITLE9=Nitty Gritty Dirt Band - The rest of the dream
TTITLE10=Reba McEntire - Walk on
TTITLE11=Mark Collie - Looks aren't everything
TTITLE12=Glen Campbell and Steve Wariner - The hand that rocks the cradl
TTITLE12=e
TTITLE13=Barbara Mandrell and Lee Greenwood - Now you see, now you don't
TTITLE14=George Strait - Love without end, amen
TTITLE15=Lionel Cartwright - I watched it all (on my radio)
EXTD=
EXTT0=
EXTT1=
EXTT2=
EXTT3=
EXTT4=
EXTT5=
EXTT6=
EXTT7=
EXTT8=
EXTT9=
EXTT10=
EXTT11=
EXTT12=
EXTT13=
EXTT14=
EXTT15=
PLAYORDER=
